<svg width="120" height="120" viewBox="0 0 120 120" fill="none" xmlns="http://www.w3.org/2000/svg">
<path d="M101.712 13.332C100.952 12.484 99.868 12 98.732 12H21.268C20.132 12 19.048 12.484 18.288 13.332C17.528 14.18 17.168 15.312 17.292 16.44L26.1 95.732C26.276 97.344 27.416 98.692 28.976 99.136L58.896 107.684C59.256 107.788 59.628 107.84 59.996 107.84C60.364 107.84 60.736 107.788 61.096 107.684L91.016 99.136C92.576 98.692 93.712 97.344 93.892 95.732L102.704 16.44C102.832 15.312 102.472 14.18 101.712 13.332ZM82.064 52.296L80.28 81.436L60.128 88.024L39.976 81.436L39.212 67.5H49.412L49.668 73.836L60.128 77.384L70.588 73.836L71.352 62.436H48.904L48.396 52.3H71.864L72.628 42.164H37.424L36.66 32.024H83.34L82.064 52.296Z" fill="white"/>
</svg>
