<svg width="374" height="374" viewBox="0 0 374 374" fill="none" xmlns="http://www.w3.org/2000/svg">
<rect width="374" height="374" rx="187" fill="black"/>
<path d="M80.8 194.8C88 198.267 91.6 205.6 91.6 216.8V239.2C91.6 243.733 92.3333 246.933 93.8 248.8C95.4 250.8 97.6667 252.2 100.6 253C100.867 254.067 101 255 101 255.8C101 256.733 101 257.6 101 258.4C101 264.667 99.5333 269 96.6 271.4C93.6667 273.933 89.8667 275.2 85.2 275.2C77.8667 275.2 71.8667 272.867 67.2 268.2C62.5333 263.533 60.2 256.467 60.2 247V226C60.2 220.133 59.1333 215.667 57 212.6C55 209.533 51.7333 207.4 47.2 206.2C46.8 204.6 46.4667 202.867 46.2 201C45.9333 199 45.8 196.933 45.8 194.8C45.8 192.667 45.9333 190.667 46.2 188.8C46.4667 186.8 46.8 185 47.2 183.4C51.7333 182.2 55 180.067 57 177C59.1333 173.933 60.2 169.467 60.2 163.6V142.6C60.2 133.133 62.5333 126.067 67.2 121.4C71.8667 116.733 77.8667 114.4 85.2 114.4C89.8667 114.4 93.6667 115.667 96.6 118.2C99.5333 120.6 101 124.933 101 131.2C101 132 101 132.867 101 133.8C101 134.6 100.867 135.533 100.6 136.6C97.6667 137.4 95.4 138.8 93.8 140.8C92.3333 142.667 91.6 145.867 91.6 150.4V172.8C91.6 184.133 88 191.467 80.8 194.8ZM203.23 218.2C201.496 219.667 199.23 220.867 196.43 221.8C193.763 222.6 190.63 223 187.03 223C182.23 223 178.23 222.4 175.03 221.2C171.963 220 169.963 217.933 169.03 215C165.296 203.267 162.23 193.8 159.83 186.6C157.43 179.267 155.563 172.867 154.23 167.4H153.23C152.83 175.267 152.496 182.467 152.23 189C152.096 195.4 151.963 201.667 151.83 207.8C151.83 213.933 151.696 220.133 151.43 226.4C151.296 232.667 151.03 239.6 150.63 247.2C148.896 247.867 146.63 248.4 143.83 248.8C141.03 249.333 138.23 249.6 135.43 249.6C129.563 249.6 124.963 248.667 121.63 246.8C118.43 244.933 116.83 241.533 116.83 236.6L122.63 134.6C123.696 132.867 126.03 131 129.63 129C133.23 127 138.296 126 144.83 126C151.896 126 157.43 127.133 161.43 129.4C165.43 131.533 168.363 135.067 170.23 140C171.43 143.2 172.696 146.867 174.03 151C175.496 155.133 176.896 159.4 178.23 163.8C179.696 168.2 181.096 172.6 182.43 177C183.763 181.267 184.963 185.133 186.03 188.6H187.03C190.23 177.4 193.43 166.6 196.63 156.2C199.83 145.667 202.763 136.867 205.43 129.8C207.43 128.733 209.963 127.867 213.03 127.2C216.23 126.4 219.763 126 223.63 126C230.163 126 235.496 127 239.63 129C243.763 130.867 246.163 133.6 246.83 137.2C247.363 139.867 247.896 144 248.43 149.6C249.096 155.067 249.763 161.267 250.43 168.2C251.096 175.133 251.763 182.467 252.43 190.2C253.096 197.933 253.696 205.4 254.23 212.6C254.896 219.667 255.43 226.2 255.83 232.2C256.23 238.067 256.496 242.6 256.63 245.8C254.363 247.133 251.963 248.067 249.43 248.6C247.03 249.267 243.896 249.6 240.03 249.6C234.963 249.6 230.696 248.733 227.23 247C223.763 245.267 221.896 241.867 221.63 236.8C220.83 222.267 220.296 209.2 220.03 197.6C219.896 186 219.63 176.267 219.23 168.4H218.23C216.896 173.6 214.963 180.133 212.43 188C209.896 195.867 206.83 205.933 203.23 218.2ZM290.805 194.8C283.605 191.467 280.005 184.133 280.005 172.8V150.4C280.005 145.867 279.205 142.667 277.605 140.8C276.138 138.8 273.938 137.4 271.005 136.6C270.738 135.533 270.605 134.6 270.605 133.8C270.605 132.867 270.605 132 270.605 131.2C270.605 124.933 272.071 120.6 275.005 118.2C277.938 115.667 281.738 114.4 286.405 114.4C293.738 114.4 299.738 116.733 304.405 121.4C309.071 126.067 311.405 133.133 311.405 142.6V163.6C311.405 169.467 312.405 173.933 314.405 177C316.538 180.067 319.871 182.2 324.405 183.4C324.805 185 325.138 186.8 325.405 188.8C325.671 190.667 325.805 192.667 325.805 194.8C325.805 196.933 325.671 199 325.405 201C325.138 202.867 324.805 204.6 324.405 206.2C319.871 207.4 316.538 209.533 314.405 212.6C312.405 215.667 311.405 220.133 311.405 226V247C311.405 256.467 309.071 263.533 304.405 268.2C299.738 272.867 293.738 275.2 286.405 275.2C281.738 275.2 277.938 273.933 275.005 271.4C272.071 269 270.605 264.667 270.605 258.4C270.605 257.6 270.605 256.733 270.605 255.8C270.605 255 270.738 254.067 271.005 253C273.938 252.2 276.138 250.8 277.605 248.8C279.205 246.933 280.005 243.733 280.005 239.2V216.8C280.005 205.6 283.605 198.267 290.805 194.8Z" fill="white"/>
</svg>
