<svg width="120" height="120" viewBox="0 0 120 120" fill="none" xmlns="http://www.w3.org/2000/svg">
<path d="M60 15H45C36.7158 15 30 21.7158 30 30C30 38.2842 36.7158 45 45 45M60 15V45M60 15H75C83.2845 15 90 21.7158 90 30C90 38.2842 83.2845 45 75 45M45 45H60M45 45C36.7158 45 30 51.7155 30 60C30 68.2845 36.7158 75 45 75M60 45H75M60 45V75M75 45C83.2845 45 90 51.7155 90 60C90 68.2845 83.2845 75 75 75C66.7155 75 60 68.2845 60 60C60 51.7155 66.7155 45 75 45ZM60 75H45M60 75V90C60 98.2845 53.2845 105 45 105C36.7158 105 30 98.2845 30 90C30 81.7155 36.7158 75 45 75" stroke="white" stroke-width="2.4" stroke-linecap="round" stroke-linejoin="round"/>
</svg>
