<svg width="120" height="120" viewBox="0 0 120 120" fill="none" xmlns="http://www.w3.org/2000/svg">
<path d="M101.712 13.332C100.952 12.484 99.868 12 98.732 12H21.268C20.132 12 19.048 12.484 18.288 13.332C17.528 14.18 17.168 15.312 17.292 16.44L26.1 95.732C26.276 97.344 27.416 98.692 28.976 99.136L58.896 107.684C59.256 107.788 59.628 107.84 59.996 107.84C60.364 107.84 60.736 107.788 61.096 107.684L91.016 99.136C92.576 98.692 93.712 97.344 93.892 95.732L102.704 16.44C102.832 15.312 102.472 14.18 101.712 13.332ZM82.516 41.72H46.796L47.644 51.888H81.656L79.104 81.928L60.012 88L59.824 87.94L40.944 81.92L39.912 69.68H49.16L49.564 74.436L60.112 76.76L70.476 74.432L71.576 61.58H39.216L36.712 32H83.348L82.516 41.72Z" fill="white"/>
</svg>
