<svg width="120" height="120" viewBox="0 0 120 120" fill="none" xmlns="http://www.w3.org/2000/svg">
<path d="M96 16H24C19.58 16 16 19.58 16 24V96C16 100.42 19.58 104 24 104H96C100.42 104 104 100.42 104 96V24C104 19.58 100.42 16 96 16ZM60 81.52C60 88.628 55.64 92.612 48.4 92.612C41.248 92.612 36.692 88.432 36.692 81.672H44.44C44.46 84.18 45.956 85.764 48.268 85.764C50.644 85.764 51.92 84.268 51.92 81.452V59.992H60V81.52ZM81.924 92.612C73.888 92.612 68.832 88.828 68.696 82.708H76.4C76.596 85.02 78.904 86.492 82.252 86.492C85.268 86.492 87.34 85.04 87.34 82.948C87.34 81.188 85.952 80.24 82.32 79.516L78.14 78.68C72.328 77.58 69.336 74.412 69.336 69.416C69.336 63.208 74.312 59.136 81.968 59.136C89.408 59.136 94.556 63.164 94.688 69.04H87.228C87.052 66.796 84.916 65.232 82.072 65.232C79.236 65.232 77.368 66.576 77.368 68.688C77.368 70.428 78.776 71.44 82.12 72.1L86.208 72.892C92.484 74.104 95.3 76.94 95.3 81.98C95.304 88.608 90.244 92.612 81.924 92.612Z" fill="white"/>
</svg>
