<svg width="218" height="89" viewBox="0 0 218 89" fill="none" xmlns="http://www.w3.org/2000/svg">
<path d="M31 2C48.1208 2 62 15.8792 62 33C62 50.1208 48.1208 64 31 64C13.8792 64 0 50.1208 0 33C0 15.8792 13.8792 2 31 2ZM40.2998 17.5C39.3334 17.5 38.4502 17.5999 37.6504 17.7998C36.8837 17.9665 36.25 18.1835 35.75 18.4502C35.0834 20.2168 34.3498 22.4166 33.5498 25.0498C32.7498 27.6498 31.9504 30.3504 31.1504 33.1504H30.9004C30.6337 32.2837 30.3333 31.3167 30 30.25C29.6667 29.1501 29.3168 28.0501 28.9502 26.9502C28.6169 25.8502 28.267 24.7833 27.9004 23.75C27.5671 22.7167 27.2502 21.8 26.9502 21C26.4835 19.7667 25.75 18.8829 24.75 18.3496C23.75 17.783 22.3662 17.5 20.5996 17.5C18.9665 17.5 17.6997 17.75 16.7998 18.25C15.8999 18.75 15.3165 19.2171 15.0498 19.6504L13.5996 45.1504C13.5997 46.3835 13.9999 47.2336 14.7998 47.7002C15.6331 48.1669 16.7833 48.4004 18.25 48.4004C18.9499 48.4004 19.6497 48.3335 20.3496 48.2002C21.0496 48.1002 21.6165 47.9665 22.0498 47.7998C22.1498 45.8999 22.2167 44.1662 22.25 42.5996C22.3167 41.0331 22.3496 39.4833 22.3496 37.9502C22.3829 36.4169 22.4169 34.85 22.4502 33.25C22.5169 31.6167 22.6002 29.8163 22.7002 27.8496H22.9502C23.2835 29.2163 23.7496 30.8171 24.3496 32.6504C24.9496 34.4504 25.7171 36.8168 26.6504 39.75C26.8837 40.4833 27.3838 40.9998 28.1504 41.2998C28.9503 41.5997 29.9505 41.75 31.1504 41.75C32.0502 41.75 32.8334 41.6502 33.5 41.4502C34.2 41.2169 34.7669 40.9165 35.2002 40.5498C36.1002 37.4832 36.8667 34.9666 37.5 33C38.1333 31.0333 38.6169 29.3996 38.9502 28.0996H39.2002C39.3002 30.0663 39.3671 32.5004 39.4004 35.4004C39.4671 38.3003 39.5998 41.567 39.7998 45.2002C39.8665 46.4668 40.3336 47.3167 41.2002 47.75C42.0668 48.1833 43.1338 48.4004 44.4004 48.4004C45.3668 48.4004 46.1501 48.317 46.75 48.1504C47.3832 48.0171 47.9832 47.7835 48.5498 47.4502C48.5165 46.6502 48.4496 45.5165 48.3496 44.0498C48.2496 42.55 48.1168 40.9168 47.9502 39.1504C47.8169 37.3504 47.6667 35.4831 47.5 33.5498C47.3333 31.6165 47.1667 29.7831 47 28.0498C46.8334 26.3167 46.6666 24.7669 46.5 23.4004C46.3667 22.0004 46.2329 20.9665 46.0996 20.2998C45.9329 19.3999 45.333 18.7166 44.2998 18.25C43.2665 17.7501 41.9331 17.5 40.2998 17.5Z" fill="white"/>
<path d="M74.4 42.68C74.8533 42.68 75.3467 42.64 75.88 42.56C76.44 42.4533 76.8533 42.32 77.12 42.16V38.96L74.24 39.2C73.4933 39.2533 72.88 39.4133 72.4 39.68C71.92 39.9467 71.68 40.3467 71.68 40.88C71.68 41.4133 71.88 41.8533 72.28 42.2C72.7067 42.52 73.4133 42.68 74.4 42.68ZM74.08 26.96C75.52 26.96 76.8267 27.1067 78 27.4C79.2 27.6933 80.2133 28.1467 81.04 28.76C81.8933 29.3467 82.5467 30.1067 83 31.04C83.4533 31.9467 83.68 33.0267 83.68 34.28V43.24C83.68 43.9333 83.48 44.5067 83.08 44.96C82.7067 45.3867 82.2533 45.76 81.72 46.08C79.9867 47.12 77.5467 47.64 74.4 47.64C72.9867 47.64 71.7067 47.5067 70.56 47.24C69.44 46.9733 68.4667 46.5733 67.64 46.04C66.84 45.5067 66.2133 44.8267 65.76 44C65.3333 43.1733 65.12 42.2133 65.12 41.12C65.12 39.28 65.6667 37.8667 66.76 36.88C67.8533 35.8933 69.5467 35.28 71.84 35.04L77.08 34.48V34.2C77.08 33.4267 76.7333 32.88 76.04 32.56C75.3733 32.2133 74.4 32.04 73.12 32.04C72.1067 32.04 71.12 32.1467 70.16 32.36C69.2 32.5733 68.3333 32.84 67.56 33.16C67.2133 32.92 66.92 32.56 66.68 32.08C66.44 31.5733 66.32 31.0533 66.32 30.52C66.32 29.8267 66.48 29.28 66.8 28.88C67.1467 28.4533 67.6667 28.0933 68.36 27.8C69.1333 27.5067 70.04 27.2933 71.08 27.16C72.1467 27.0267 73.1467 26.96 74.08 26.96ZM106.838 43.48C106.704 44.7333 106.331 45.6933 105.718 46.36C105.131 47.0267 104.264 47.36 103.118 47.36C102.264 47.36 101.504 47.16 100.838 46.76C100.171 46.3333 99.4511 45.6267 98.6778 44.64L94.7178 39.68V46.96C94.4245 47.0133 93.9845 47.08 93.3978 47.16C92.8378 47.2667 92.2645 47.32 91.6778 47.32C91.0911 47.32 90.5578 47.28 90.0778 47.2C89.6245 47.12 89.2378 46.96 88.9178 46.72C88.5978 46.48 88.3445 46.16 88.1578 45.76C87.9978 45.3333 87.9178 44.7867 87.9178 44.12V20.96C88.2111 20.88 88.6378 20.8 89.1978 20.72C89.7845 20.6133 90.3711 20.56 90.9578 20.56C91.5445 20.56 92.0645 20.6 92.5178 20.68C92.9978 20.76 93.3978 20.92 93.7178 21.16C94.0378 21.4 94.2778 21.7333 94.4378 22.16C94.6245 22.56 94.7178 23.0933 94.7178 23.76V34.32L101.598 27.28C102.984 27.28 104.091 27.5867 104.918 28.2C105.771 28.8133 106.198 29.5867 106.198 30.52C106.198 30.92 106.131 31.2933 105.998 31.64C105.864 31.96 105.651 32.2933 105.358 32.64C105.091 32.9867 104.731 33.36 104.278 33.76C103.851 34.1333 103.344 34.5733 102.758 35.08L100.438 37.08L106.838 43.48ZM129.247 37.28C129.247 38.9333 128.994 40.4133 128.487 41.72C127.98 43 127.26 44.08 126.327 44.96C125.42 45.84 124.327 46.5067 123.047 46.96C121.767 47.4133 120.34 47.64 118.767 47.64C117.194 47.64 115.767 47.4 114.487 46.92C113.207 46.44 112.1 45.76 111.167 44.88C110.26 43.9733 109.554 42.88 109.047 41.6C108.54 40.32 108.287 38.88 108.287 37.28C108.287 35.7067 108.54 34.28 109.047 33C109.554 31.72 110.26 30.64 111.167 29.76C112.1 28.8533 113.207 28.16 114.487 27.68C115.767 27.2 117.194 26.96 118.767 26.96C120.34 26.96 121.767 27.2133 123.047 27.72C124.327 28.2 125.42 28.8933 126.327 29.8C127.26 30.68 127.98 31.76 128.487 33.04C128.994 34.32 129.247 35.7333 129.247 37.28ZM115.247 37.28C115.247 38.9067 115.554 40.16 116.167 41.04C116.807 41.8933 117.687 42.32 118.807 42.32C119.927 42.32 120.78 41.88 121.367 41C121.98 40.12 122.287 38.88 122.287 37.28C122.287 35.68 121.98 34.4533 121.367 33.6C120.754 32.72 119.887 32.28 118.767 32.28C117.647 32.28 116.78 32.72 116.167 33.6C115.554 34.4533 115.247 35.68 115.247 37.28ZM145.057 46.48C144.683 46.7733 144.137 47.0133 143.417 47.2C142.697 47.3867 141.883 47.48 140.977 47.48C139.937 47.48 139.03 47.3467 138.257 47.08C137.51 46.8133 136.99 46.3867 136.697 45.8C136.457 45.3467 136.163 44.72 135.817 43.92C135.497 43.0933 135.15 42.1867 134.777 41.2C134.403 40.1867 134.017 39.1067 133.617 37.96C133.217 36.8133 132.83 35.68 132.457 34.56C132.11 33.44 131.79 32.36 131.497 31.32C131.203 30.28 130.963 29.36 130.777 28.56C131.15 28.1867 131.643 27.8667 132.257 27.6C132.897 27.3067 133.59 27.16 134.337 27.16C135.27 27.16 136.03 27.36 136.617 27.76C137.23 28.1333 137.683 28.8533 137.977 29.92L139.537 36.04C139.83 37.24 140.11 38.3333 140.377 39.32C140.643 40.28 140.843 41.0267 140.977 41.56H141.177C141.683 39.5867 142.217 37.4 142.777 35C143.337 32.6 143.843 30.24 144.297 27.92C144.75 27.68 145.257 27.4933 145.817 27.36C146.403 27.2267 146.963 27.16 147.497 27.16C148.43 27.16 149.217 27.36 149.857 27.76C150.497 28.16 150.817 28.8533 150.817 29.84C150.817 30.2667 150.71 30.8933 150.497 31.72C150.31 32.52 150.057 33.44 149.737 34.48C149.443 35.4933 149.083 36.5733 148.657 37.72C148.257 38.8667 147.843 39.9867 147.417 41.08C146.99 42.1733 146.563 43.2 146.137 44.16C145.737 45.0933 145.377 45.8667 145.057 46.48ZM163.938 47.64C162.365 47.64 160.898 47.4267 159.538 47C158.205 46.5467 157.031 45.88 156.018 45C155.031 44.12 154.245 43.0133 153.658 41.68C153.098 40.3467 152.818 38.7867 152.818 37C152.818 35.24 153.098 33.7333 153.658 32.48C154.245 31.2 155.005 30.16 155.938 29.36C156.871 28.5333 157.938 27.9333 159.138 27.56C160.338 27.16 161.565 26.96 162.818 26.96C164.231 26.96 165.511 27.1733 166.658 27.6C167.831 28.0267 168.831 28.6133 169.658 29.36C170.511 30.1067 171.165 31 171.618 32.04C172.098 33.08 172.338 34.2133 172.338 35.44C172.338 36.3467 172.085 37.04 171.578 37.52C171.071 38 170.365 38.3067 169.458 38.44L159.578 39.92C159.871 40.8 160.471 41.4667 161.378 41.92C162.285 42.3467 163.325 42.56 164.498 42.56C165.591 42.56 166.618 42.4267 167.578 42.16C168.565 41.8667 169.365 41.5333 169.978 41.16C170.405 41.4267 170.765 41.8 171.058 42.28C171.351 42.76 171.498 43.2667 171.498 43.8C171.498 45 170.938 45.8933 169.818 46.48C168.965 46.9333 168.005 47.24 166.938 47.4C165.871 47.56 164.871 47.64 163.938 47.64ZM162.818 31.92C162.178 31.92 161.618 32.0267 161.138 32.24C160.685 32.4533 160.311 32.7333 160.018 33.08C159.725 33.4 159.498 33.7733 159.338 34.2C159.205 34.6 159.125 35.0133 159.098 35.44L165.938 34.32C165.858 33.7867 165.565 33.2533 165.058 32.72C164.551 32.1867 163.805 31.92 162.818 31.92ZM185.891 47.64C184.318 47.64 182.851 47.4267 181.491 47C180.158 46.5467 178.985 45.88 177.971 45C176.985 44.12 176.198 43.0133 175.611 41.68C175.051 40.3467 174.771 38.7867 174.771 37C174.771 35.24 175.051 33.7333 175.611 32.48C176.198 31.2 176.958 30.16 177.891 29.36C178.825 28.5333 179.891 27.9333 181.091 27.56C182.291 27.16 183.518 26.96 184.771 26.96C186.185 26.96 187.465 27.1733 188.611 27.6C189.785 28.0267 190.785 28.6133 191.611 29.36C192.465 30.1067 193.118 31 193.571 32.04C194.051 33.08 194.291 34.2133 194.291 35.44C194.291 36.3467 194.038 37.04 193.531 37.52C193.025 38 192.318 38.3067 191.411 38.44L181.531 39.92C181.825 40.8 182.425 41.4667 183.331 41.92C184.238 42.3467 185.278 42.56 186.451 42.56C187.545 42.56 188.571 42.4267 189.531 42.16C190.518 41.8667 191.318 41.5333 191.931 41.16C192.358 41.4267 192.718 41.8 193.011 42.28C193.305 42.76 193.451 43.2667 193.451 43.8C193.451 45 192.891 45.8933 191.771 46.48C190.918 46.9333 189.958 47.24 188.891 47.4C187.825 47.56 186.825 47.64 185.891 47.64ZM184.771 31.92C184.131 31.92 183.571 32.0267 183.091 32.24C182.638 32.4533 182.265 32.7333 181.971 33.08C181.678 33.4 181.451 33.7733 181.291 34.2C181.158 34.6 181.078 35.0133 181.051 35.44L187.891 34.32C187.811 33.7867 187.518 33.2533 187.011 32.72C186.505 32.1867 185.758 31.92 184.771 31.92ZM210.408 46.48C210.035 46.7733 209.488 47.0133 208.768 47.2C208.048 47.3867 207.235 47.48 206.328 47.48C205.288 47.48 204.381 47.3467 203.608 47.08C202.861 46.8133 202.341 46.3867 202.048 45.8C201.808 45.3467 201.515 44.72 201.168 43.92C200.848 43.0933 200.501 42.1867 200.128 41.2C199.755 40.1867 199.368 39.1067 198.968 37.96C198.568 36.8133 198.181 35.68 197.808 34.56C197.461 33.44 197.141 32.36 196.848 31.32C196.555 30.28 196.315 29.36 196.128 28.56C196.501 28.1867 196.995 27.8667 197.608 27.6C198.248 27.3067 198.941 27.16 199.688 27.16C200.621 27.16 201.381 27.36 201.968 27.76C202.581 28.1333 203.035 28.8533 203.328 29.92L204.888 36.04C205.181 37.24 205.461 38.3333 205.728 39.32C205.995 40.28 206.195 41.0267 206.328 41.56H206.528C207.035 39.5867 207.568 37.4 208.128 35C208.688 32.6 209.195 30.24 209.648 27.92C210.101 27.68 210.608 27.4933 211.168 27.36C211.755 27.2267 212.315 27.16 212.848 27.16C213.781 27.16 214.568 27.36 215.208 27.76C215.848 28.16 216.168 28.8533 216.168 29.84C216.168 30.2667 216.061 30.8933 215.848 31.72C215.661 32.52 215.408 33.44 215.088 34.48C214.795 35.4933 214.435 36.5733 214.008 37.72C213.608 38.8667 213.195 39.9867 212.768 41.08C212.341 42.1733 211.915 43.2 211.488 44.16C211.088 45.0933 210.728 45.8667 210.408 46.48Z" fill="white"/>
<path d="M79.81 54.71C79.81 54.2 79.895 53.765 80.065 53.405C80.245 53.035 80.485 52.735 80.785 52.505C81.085 52.265 81.435 52.09 81.835 51.98C82.245 51.87 82.68 51.815 83.14 51.815C83.88 51.815 84.425 51.915 84.775 52.115C85.125 52.305 85.3 52.635 85.3 53.105C85.3 53.305 85.255 53.485 85.165 53.645C85.085 53.805 84.995 53.925 84.895 54.005C84.705 53.955 84.505 53.915 84.295 53.885C84.095 53.845 83.86 53.825 83.59 53.825C83.16 53.825 82.825 53.9 82.585 54.05C82.345 54.19 82.225 54.44 82.225 54.8V55.28H84.685C84.745 55.39 84.8 55.53 84.85 55.7C84.91 55.86 84.94 56.04 84.94 56.24C84.94 56.59 84.86 56.845 84.7 57.005C84.55 57.155 84.345 57.23 84.085 57.23H82.36V61.985C82.26 62.015 82.1 62.045 81.88 62.075C81.67 62.105 81.45 62.12 81.22 62.12C81 62.12 80.8 62.105 80.62 62.075C80.45 62.045 80.305 61.985 80.185 61.895C80.065 61.805 79.97 61.685 79.9 61.535C79.84 61.375 79.81 61.17 79.81 60.92V54.71ZM88.4823 61.985C88.3823 62.015 88.2223 62.045 88.0023 62.075C87.7923 62.105 87.5723 62.12 87.3423 62.12C87.1223 62.12 86.9223 62.105 86.7423 62.075C86.5723 62.045 86.4273 61.985 86.3073 61.895C86.1873 61.805 86.0923 61.685 86.0223 61.535C85.9623 61.375 85.9323 61.17 85.9323 60.92V56.42C85.9323 56.19 85.9723 55.995 86.0523 55.835C86.1423 55.665 86.2673 55.515 86.4273 55.385C86.5873 55.255 86.7823 55.14 87.0123 55.04C87.2523 54.93 87.5073 54.835 87.7773 54.755C88.0473 54.675 88.3273 54.615 88.6173 54.575C88.9073 54.525 89.1973 54.5 89.4873 54.5C89.9673 54.5 90.3473 54.595 90.6273 54.785C90.9073 54.965 91.0473 55.265 91.0473 55.685C91.0473 55.825 91.0273 55.965 90.9873 56.105C90.9473 56.235 90.8973 56.355 90.8373 56.465C90.6273 56.465 90.4123 56.475 90.1923 56.495C89.9723 56.515 89.7573 56.545 89.5473 56.585C89.3373 56.625 89.1373 56.67 88.9473 56.72C88.7673 56.76 88.6123 56.81 88.4823 56.87V61.985ZM99.366 58.355C99.366 58.975 99.271 59.53 99.081 60.02C98.891 60.5 98.621 60.905 98.271 61.235C97.931 61.565 97.521 61.815 97.041 61.985C96.561 62.155 96.026 62.24 95.436 62.24C94.846 62.24 94.311 62.15 93.831 61.97C93.351 61.79 92.936 61.535 92.586 61.205C92.246 60.865 91.981 60.455 91.791 59.975C91.601 59.495 91.506 58.955 91.506 58.355C91.506 57.765 91.601 57.23 91.791 56.75C91.981 56.27 92.246 55.865 92.586 55.535C92.936 55.195 93.351 54.935 93.831 54.755C94.311 54.575 94.846 54.485 95.436 54.485C96.026 54.485 96.561 54.58 97.041 54.77C97.521 54.95 97.931 55.21 98.271 55.55C98.621 55.88 98.891 56.285 99.081 56.765C99.271 57.245 99.366 57.775 99.366 58.355ZM94.116 58.355C94.116 58.965 94.231 59.435 94.461 59.765C94.701 60.085 95.031 60.245 95.451 60.245C95.871 60.245 96.191 60.08 96.411 59.75C96.641 59.42 96.756 58.955 96.756 58.355C96.756 57.755 96.641 57.295 96.411 56.975C96.181 56.645 95.856 56.48 95.436 56.48C95.016 56.48 94.691 56.645 94.461 56.975C94.231 57.295 94.116 57.755 94.116 58.355ZM105.23 57.38C105.23 57.07 105.14 56.845 104.96 56.705C104.79 56.555 104.555 56.48 104.255 56.48C104.055 56.48 103.855 56.505 103.655 56.555C103.465 56.605 103.3 56.68 103.16 56.78V61.985C103.06 62.015 102.9 62.045 102.68 62.075C102.47 62.105 102.25 62.12 102.02 62.12C101.8 62.12 101.6 62.105 101.42 62.075C101.25 62.045 101.105 61.985 100.985 61.895C100.865 61.805 100.77 61.685 100.7 61.535C100.64 61.375 100.61 61.17 100.61 60.92V56.42C100.61 56.15 100.665 55.93 100.775 55.76C100.895 55.59 101.055 55.435 101.255 55.295C101.595 55.055 102.02 54.86 102.53 54.71C103.05 54.56 103.625 54.485 104.255 54.485C105.385 54.485 106.255 54.735 106.865 55.235C107.475 55.725 107.78 56.41 107.78 57.29V61.985C107.68 62.015 107.52 62.045 107.3 62.075C107.09 62.105 106.87 62.12 106.64 62.12C106.42 62.12 106.22 62.105 106.04 62.075C105.87 62.045 105.725 61.985 105.605 61.895C105.485 61.805 105.39 61.685 105.32 61.535C105.26 61.375 105.23 61.17 105.23 60.92V57.38ZM111.905 59.495C111.905 59.755 111.985 59.94 112.145 60.05C112.315 60.16 112.55 60.215 112.85 60.215C113 60.215 113.155 60.205 113.315 60.185C113.475 60.155 113.615 60.12 113.735 60.08C113.825 60.19 113.9 60.315 113.96 60.455C114.03 60.585 114.065 60.745 114.065 60.935C114.065 61.315 113.92 61.625 113.63 61.865C113.35 62.105 112.85 62.225 112.13 62.225C111.25 62.225 110.57 62.025 110.09 61.625C109.62 61.225 109.385 60.575 109.385 59.675V53.255C109.495 53.225 109.65 53.195 109.85 53.165C110.06 53.125 110.28 53.105 110.51 53.105C110.95 53.105 111.29 53.185 111.53 53.345C111.78 53.495 111.905 53.82 111.905 54.32V55.28H113.87C113.93 55.39 113.985 55.53 114.035 55.7C114.095 55.86 114.125 56.04 114.125 56.24C114.125 56.59 114.045 56.845 113.885 57.005C113.735 57.155 113.53 57.23 113.27 57.23H111.905V59.495ZM119.128 62.24C118.538 62.24 117.988 62.16 117.478 62C116.978 61.83 116.538 61.58 116.158 61.25C115.788 60.92 115.493 60.505 115.273 60.005C115.063 59.505 114.958 58.92 114.958 58.25C114.958 57.59 115.063 57.025 115.273 56.555C115.493 56.075 115.778 55.685 116.128 55.385C116.478 55.075 116.878 54.85 117.328 54.71C117.778 54.56 118.238 54.485 118.708 54.485C119.238 54.485 119.718 54.565 120.148 54.725C120.588 54.885 120.963 55.105 121.273 55.385C121.593 55.665 121.838 56 122.008 56.39C122.188 56.78 122.278 57.205 122.278 57.665C122.278 58.005 122.183 58.265 121.993 58.445C121.803 58.625 121.538 58.74 121.198 58.79L117.493 59.345C117.603 59.675 117.828 59.925 118.168 60.095C118.508 60.255 118.898 60.335 119.338 60.335C119.748 60.335 120.133 60.285 120.493 60.185C120.863 60.075 121.163 59.95 121.393 59.81C121.553 59.91 121.688 60.05 121.798 60.23C121.908 60.41 121.963 60.6 121.963 60.8C121.963 61.25 121.753 61.585 121.333 61.805C121.013 61.975 120.653 62.09 120.253 62.15C119.853 62.21 119.478 62.24 119.128 62.24ZM118.708 56.345C118.468 56.345 118.258 56.385 118.078 56.465C117.908 56.545 117.768 56.65 117.658 56.78C117.548 56.9 117.463 57.04 117.403 57.2C117.353 57.35 117.323 57.505 117.313 57.665L119.878 57.245C119.848 57.045 119.738 56.845 119.548 56.645C119.358 56.445 119.078 56.345 118.708 56.345ZM128.126 57.38C128.126 57.07 128.036 56.845 127.856 56.705C127.686 56.555 127.451 56.48 127.151 56.48C126.951 56.48 126.751 56.505 126.551 56.555C126.361 56.605 126.196 56.68 126.056 56.78V61.985C125.956 62.015 125.796 62.045 125.576 62.075C125.366 62.105 125.146 62.12 124.916 62.12C124.696 62.12 124.496 62.105 124.316 62.075C124.146 62.045 124.001 61.985 123.881 61.895C123.761 61.805 123.666 61.685 123.596 61.535C123.536 61.375 123.506 61.17 123.506 60.92V56.42C123.506 56.15 123.561 55.93 123.671 55.76C123.791 55.59 123.951 55.435 124.151 55.295C124.491 55.055 124.916 54.86 125.426 54.71C125.946 54.56 126.521 54.485 127.151 54.485C128.281 54.485 129.151 54.735 129.761 55.235C130.371 55.725 130.676 56.41 130.676 57.29V61.985C130.576 62.015 130.416 62.045 130.196 62.075C129.986 62.105 129.766 62.12 129.536 62.12C129.316 62.12 129.116 62.105 128.936 62.075C128.766 62.045 128.621 61.985 128.501 61.895C128.381 61.805 128.286 61.685 128.216 61.535C128.156 61.375 128.126 61.17 128.126 60.92V57.38ZM131.936 58.355C131.936 57.695 132.036 57.125 132.236 56.645C132.436 56.155 132.711 55.75 133.061 55.43C133.421 55.11 133.836 54.875 134.306 54.725C134.786 54.565 135.301 54.485 135.851 54.485C136.051 54.485 136.246 54.505 136.436 54.545C136.626 54.575 136.781 54.615 136.901 54.665V52.235C137.001 52.205 137.161 52.175 137.381 52.145C137.601 52.105 137.826 52.085 138.056 52.085C138.276 52.085 138.471 52.1 138.641 52.13C138.821 52.16 138.971 52.22 139.091 52.31C139.211 52.4 139.301 52.525 139.361 52.685C139.421 52.835 139.451 53.035 139.451 53.285V60.395C139.451 60.865 139.231 61.24 138.791 61.52C138.501 61.71 138.126 61.875 137.666 62.015C137.206 62.165 136.676 62.24 136.076 62.24C135.426 62.24 134.841 62.15 134.321 61.97C133.811 61.79 133.376 61.53 133.016 61.19C132.666 60.85 132.396 60.445 132.206 59.975C132.026 59.495 131.936 58.955 131.936 58.355ZM136.196 56.48C135.656 56.48 135.241 56.635 134.951 56.945C134.661 57.255 134.516 57.725 134.516 58.355C134.516 58.975 134.651 59.445 134.921 59.765C135.191 60.075 135.581 60.23 136.091 60.23C136.271 60.23 136.431 60.205 136.571 60.155C136.721 60.095 136.836 60.03 136.916 59.96V56.66C136.716 56.54 136.476 56.48 136.196 56.48ZM140.995 59.21C140.925 59.1 140.86 58.955 140.8 58.775C140.74 58.595 140.71 58.405 140.71 58.205C140.71 57.835 140.795 57.57 140.965 57.41C141.135 57.24 141.355 57.155 141.625 57.155H144.835C144.895 57.265 144.955 57.41 145.015 57.59C145.085 57.77 145.12 57.96 145.12 58.16C145.12 58.53 145.035 58.8 144.865 58.97C144.695 59.13 144.475 59.21 144.205 59.21H140.995ZM146.071 58.355C146.071 57.695 146.171 57.125 146.371 56.645C146.571 56.155 146.846 55.75 147.196 55.43C147.556 55.11 147.971 54.875 148.441 54.725C148.921 54.565 149.436 54.485 149.986 54.485C150.186 54.485 150.381 54.505 150.571 54.545C150.761 54.575 150.916 54.615 151.036 54.665V52.235C151.136 52.205 151.296 52.175 151.516 52.145C151.736 52.105 151.961 52.085 152.191 52.085C152.411 52.085 152.606 52.1 152.776 52.13C152.956 52.16 153.106 52.22 153.226 52.31C153.346 52.4 153.436 52.525 153.496 52.685C153.556 52.835 153.586 53.035 153.586 53.285V60.395C153.586 60.865 153.366 61.24 152.926 61.52C152.636 61.71 152.261 61.875 151.801 62.015C151.341 62.165 150.811 62.24 150.211 62.24C149.561 62.24 148.976 62.15 148.456 61.97C147.946 61.79 147.511 61.53 147.151 61.19C146.801 60.85 146.531 60.445 146.341 59.975C146.161 59.495 146.071 58.955 146.071 58.355ZM150.331 56.48C149.791 56.48 149.376 56.635 149.086 56.945C148.796 57.255 148.651 57.725 148.651 58.355C148.651 58.975 148.786 59.445 149.056 59.765C149.326 60.075 149.716 60.23 150.226 60.23C150.406 60.23 150.566 60.205 150.706 60.155C150.856 60.095 150.971 60.03 151.051 59.96V56.66C150.851 56.54 150.611 56.48 150.331 56.48ZM159.031 62.24C158.441 62.24 157.891 62.16 157.381 62C156.881 61.83 156.441 61.58 156.061 61.25C155.691 60.92 155.396 60.505 155.176 60.005C154.966 59.505 154.861 58.92 154.861 58.25C154.861 57.59 154.966 57.025 155.176 56.555C155.396 56.075 155.681 55.685 156.031 55.385C156.381 55.075 156.781 54.85 157.231 54.71C157.681 54.56 158.141 54.485 158.611 54.485C159.141 54.485 159.621 54.565 160.051 54.725C160.491 54.885 160.866 55.105 161.176 55.385C161.496 55.665 161.741 56 161.911 56.39C162.091 56.78 162.181 57.205 162.181 57.665C162.181 58.005 162.086 58.265 161.896 58.445C161.706 58.625 161.441 58.74 161.101 58.79L157.396 59.345C157.506 59.675 157.731 59.925 158.071 60.095C158.411 60.255 158.801 60.335 159.241 60.335C159.651 60.335 160.036 60.285 160.396 60.185C160.766 60.075 161.066 59.95 161.296 59.81C161.456 59.91 161.591 60.05 161.701 60.23C161.811 60.41 161.866 60.6 161.866 60.8C161.866 61.25 161.656 61.585 161.236 61.805C160.916 61.975 160.556 62.09 160.156 62.15C159.756 62.21 159.381 62.24 159.031 62.24ZM158.611 56.345C158.371 56.345 158.161 56.385 157.981 56.465C157.811 56.545 157.671 56.65 157.561 56.78C157.451 56.9 157.366 57.04 157.306 57.2C157.256 57.35 157.226 57.505 157.216 57.665L159.781 57.245C159.751 57.045 159.641 56.845 159.451 56.645C159.261 56.445 158.981 56.345 158.611 56.345ZM168.224 61.805C168.084 61.915 167.879 62.005 167.609 62.075C167.339 62.145 167.034 62.18 166.694 62.18C166.304 62.18 165.964 62.13 165.674 62.03C165.394 61.93 165.199 61.77 165.089 61.55C164.999 61.38 164.889 61.145 164.759 60.845C164.639 60.535 164.509 60.195 164.369 59.825C164.229 59.445 164.084 59.04 163.934 58.61C163.784 58.18 163.639 57.755 163.499 57.335C163.369 56.915 163.249 56.51 163.139 56.12C163.029 55.73 162.939 55.385 162.869 55.085C163.009 54.945 163.194 54.825 163.424 54.725C163.664 54.615 163.924 54.56 164.204 54.56C164.554 54.56 164.839 54.635 165.059 54.785C165.289 54.925 165.459 55.195 165.569 55.595L166.154 57.89C166.264 58.34 166.369 58.75 166.469 59.12C166.569 59.48 166.644 59.76 166.694 59.96H166.769C166.959 59.22 167.159 58.4 167.369 57.5C167.579 56.6 167.769 55.715 167.939 54.845C168.109 54.755 168.299 54.685 168.509 54.635C168.729 54.585 168.939 54.56 169.139 54.56C169.489 54.56 169.784 54.635 170.024 54.785C170.264 54.935 170.384 55.195 170.384 55.565C170.384 55.725 170.344 55.96 170.264 56.27C170.194 56.57 170.099 56.915 169.979 57.305C169.869 57.685 169.734 58.09 169.574 58.52C169.424 58.95 169.269 59.37 169.109 59.78C168.949 60.19 168.789 60.575 168.629 60.935C168.479 61.285 168.344 61.575 168.224 61.805ZM175.305 62.24C174.715 62.24 174.165 62.16 173.655 62C173.155 61.83 172.715 61.58 172.335 61.25C171.965 60.92 171.67 60.505 171.45 60.005C171.24 59.505 171.135 58.92 171.135 58.25C171.135 57.59 171.24 57.025 171.45 56.555C171.67 56.075 171.955 55.685 172.305 55.385C172.655 55.075 173.055 54.85 173.505 54.71C173.955 54.56 174.415 54.485 174.885 54.485C175.415 54.485 175.895 54.565 176.325 54.725C176.765 54.885 177.14 55.105 177.45 55.385C177.77 55.665 178.015 56 178.185 56.39C178.365 56.78 178.455 57.205 178.455 57.665C178.455 58.005 178.36 58.265 178.17 58.445C177.98 58.625 177.715 58.74 177.375 58.79L173.67 59.345C173.78 59.675 174.005 59.925 174.345 60.095C174.685 60.255 175.075 60.335 175.515 60.335C175.925 60.335 176.31 60.285 176.67 60.185C177.04 60.075 177.34 59.95 177.57 59.81C177.73 59.91 177.865 60.05 177.975 60.23C178.085 60.41 178.14 60.6 178.14 60.8C178.14 61.25 177.93 61.585 177.51 61.805C177.19 61.975 176.83 62.09 176.43 62.15C176.03 62.21 175.655 62.24 175.305 62.24ZM174.885 56.345C174.645 56.345 174.435 56.385 174.255 56.465C174.085 56.545 173.945 56.65 173.835 56.78C173.725 56.9 173.64 57.04 173.58 57.2C173.53 57.35 173.5 57.505 173.49 57.665L176.055 57.245C176.025 57.045 175.915 56.845 175.725 56.645C175.535 56.445 175.255 56.345 174.885 56.345ZM182.277 61.985C182.167 62.005 182.002 62.03 181.782 62.06C181.572 62.1 181.357 62.12 181.137 62.12C180.917 62.12 180.717 62.105 180.537 62.075C180.367 62.045 180.222 61.985 180.102 61.895C179.982 61.805 179.887 61.685 179.817 61.535C179.757 61.375 179.727 61.17 179.727 60.92V52.22C179.837 52.2 179.997 52.175 180.207 52.145C180.427 52.105 180.647 52.085 180.867 52.085C181.087 52.085 181.282 52.1 181.452 52.13C181.632 52.16 181.782 52.22 181.902 52.31C182.022 52.4 182.112 52.525 182.172 52.685C182.242 52.835 182.277 53.035 182.277 53.285V61.985ZM191.431 58.355C191.431 58.975 191.336 59.53 191.146 60.02C190.956 60.5 190.686 60.905 190.336 61.235C189.996 61.565 189.586 61.815 189.106 61.985C188.626 62.155 188.091 62.24 187.501 62.24C186.911 62.24 186.376 62.15 185.896 61.97C185.416 61.79 185.001 61.535 184.651 61.205C184.311 60.865 184.046 60.455 183.856 59.975C183.666 59.495 183.571 58.955 183.571 58.355C183.571 57.765 183.666 57.23 183.856 56.75C184.046 56.27 184.311 55.865 184.651 55.535C185.001 55.195 185.416 54.935 185.896 54.755C186.376 54.575 186.911 54.485 187.501 54.485C188.091 54.485 188.626 54.58 189.106 54.77C189.586 54.95 189.996 55.21 190.336 55.55C190.686 55.88 190.956 56.285 191.146 56.765C191.336 57.245 191.431 57.775 191.431 58.355ZM186.181 58.355C186.181 58.965 186.296 59.435 186.526 59.765C186.766 60.085 187.096 60.245 187.516 60.245C187.936 60.245 188.256 60.08 188.476 59.75C188.706 59.42 188.821 58.955 188.821 58.355C188.821 57.755 188.706 57.295 188.476 56.975C188.246 56.645 187.921 56.48 187.501 56.48C187.081 56.48 186.756 56.645 186.526 56.975C186.296 57.295 186.181 57.755 186.181 58.355ZM196.021 54.485C196.621 54.485 197.176 54.565 197.686 54.725C198.206 54.875 198.651 55.11 199.021 55.43C199.391 55.75 199.681 56.155 199.891 56.645C200.101 57.125 200.206 57.7 200.206 58.37C200.206 59.01 200.116 59.57 199.936 60.05C199.756 60.53 199.501 60.935 199.171 61.265C198.841 61.585 198.441 61.825 197.971 61.985C197.511 62.145 196.996 62.225 196.426 62.225C195.996 62.225 195.596 62.16 195.226 62.03V64.52C195.126 64.55 194.966 64.58 194.746 64.61C194.526 64.65 194.301 64.67 194.071 64.67C193.851 64.67 193.651 64.655 193.471 64.625C193.301 64.595 193.156 64.535 193.036 64.445C192.916 64.355 192.826 64.23 192.766 64.07C192.706 63.92 192.676 63.72 192.676 63.47V56.27C192.676 56 192.731 55.78 192.841 55.61C192.961 55.44 193.121 55.285 193.321 55.145C193.631 54.945 194.016 54.785 194.476 54.665C194.936 54.545 195.451 54.485 196.021 54.485ZM196.051 60.215C197.081 60.215 197.596 59.6 197.596 58.37C197.596 57.73 197.466 57.255 197.206 56.945C196.956 56.635 196.591 56.48 196.111 56.48C195.921 56.48 195.751 56.505 195.601 56.555C195.451 56.595 195.321 56.645 195.211 56.705V60.005C195.331 60.065 195.461 60.115 195.601 60.155C195.741 60.195 195.891 60.215 196.051 60.215ZM205.305 62.24C204.715 62.24 204.165 62.16 203.655 62C203.155 61.83 202.715 61.58 202.335 61.25C201.965 60.92 201.67 60.505 201.45 60.005C201.24 59.505 201.135 58.92 201.135 58.25C201.135 57.59 201.24 57.025 201.45 56.555C201.67 56.075 201.955 55.685 202.305 55.385C202.655 55.075 203.055 54.85 203.505 54.71C203.955 54.56 204.415 54.485 204.885 54.485C205.415 54.485 205.895 54.565 206.325 54.725C206.765 54.885 207.14 55.105 207.45 55.385C207.77 55.665 208.015 56 208.185 56.39C208.365 56.78 208.455 57.205 208.455 57.665C208.455 58.005 208.36 58.265 208.17 58.445C207.98 58.625 207.715 58.74 207.375 58.79L203.67 59.345C203.78 59.675 204.005 59.925 204.345 60.095C204.685 60.255 205.075 60.335 205.515 60.335C205.925 60.335 206.31 60.285 206.67 60.185C207.04 60.075 207.34 59.95 207.57 59.81C207.73 59.91 207.865 60.05 207.975 60.23C208.085 60.41 208.14 60.6 208.14 60.8C208.14 61.25 207.93 61.585 207.51 61.805C207.19 61.975 206.83 62.09 206.43 62.15C206.03 62.21 205.655 62.24 205.305 62.24ZM204.885 56.345C204.645 56.345 204.435 56.385 204.255 56.465C204.085 56.545 203.945 56.65 203.835 56.78C203.725 56.9 203.64 57.04 203.58 57.2C203.53 57.35 203.5 57.505 203.49 57.665L206.055 57.245C206.025 57.045 205.915 56.845 205.725 56.645C205.535 56.445 205.255 56.345 204.885 56.345ZM212.232 61.985C212.132 62.015 211.972 62.045 211.752 62.075C211.542 62.105 211.322 62.12 211.092 62.12C210.872 62.12 210.672 62.105 210.492 62.075C210.322 62.045 210.177 61.985 210.057 61.895C209.937 61.805 209.842 61.685 209.772 61.535C209.712 61.375 209.682 61.17 209.682 60.92V56.42C209.682 56.19 209.722 55.995 209.802 55.835C209.892 55.665 210.017 55.515 210.177 55.385C210.337 55.255 210.532 55.14 210.762 55.04C211.002 54.93 211.257 54.835 211.527 54.755C211.797 54.675 212.077 54.615 212.367 54.575C212.657 54.525 212.947 54.5 213.237 54.5C213.717 54.5 214.097 54.595 214.377 54.785C214.657 54.965 214.797 55.265 214.797 55.685C214.797 55.825 214.777 55.965 214.737 56.105C214.697 56.235 214.647 56.355 214.587 56.465C214.377 56.465 214.162 56.475 213.942 56.495C213.722 56.515 213.507 56.545 213.297 56.585C213.087 56.625 212.887 56.67 212.697 56.72C212.517 56.76 212.362 56.81 212.232 56.87V61.985Z" fill="white"/>
<path d="M214.652 60.785C214.652 60.365 214.782 60.015 215.042 59.735C215.302 59.455 215.657 59.315 216.107 59.315C216.557 59.315 216.912 59.455 217.172 59.735C217.432 60.015 217.562 60.365 217.562 60.785C217.562 61.205 217.432 61.555 217.172 61.835C216.912 62.115 216.557 62.255 216.107 62.255C215.657 62.255 215.302 62.115 215.042 61.835C214.782 61.555 214.652 61.205 214.652 60.785Z" fill="#FF5C5C"/>
</svg>
