<svg width="120" height="120" viewBox="0 0 120 120" fill="none" xmlns="http://www.w3.org/2000/svg">
<g clip-path="url(#clip0_7_147)">
<path d="M67.6349 0.491118C34.7661 -3.70888 4.70612 19.4924 0.491118 52.3649C-3.70888 85.2336 19.4924 115.294 52.3649 119.509C85.2336 123.709 115.294 100.507 119.49 67.6349C123.709 34.7661 100.511 4.70612 67.6349 0.491118ZM79.9799 37.9311C78.8661 37.9311 77.8086 38.3811 77.0286 39.1799L54.7649 61.4249L53.2236 59.8986L50.0174 56.6774C71.9511 34.8036 75.9186 34.5861 79.9761 37.9274L79.9799 37.9311ZM55.6836 62.2236L77.8686 40.0199C79.0986 38.7299 81.1499 38.7486 82.3836 40.0386C83.5949 41.3474 83.4749 43.3986 82.1099 44.5274L58.6161 65.1524L55.6836 62.2236ZM57.3261 65.7036L51.8174 66.8924C51.7011 66.9111 51.5474 66.8511 51.4874 66.7161C51.4274 66.5961 51.4461 66.4611 51.5474 66.3599L54.7686 63.1386L57.3261 65.7036ZM43.3011 63.4011L49.1811 57.5399L53.5761 61.9349L43.6724 64.0611C43.4961 64.1024 43.3236 64.0274 43.2411 63.8661C43.1474 63.7124 43.1849 63.5174 43.3011 63.4011ZM25.0799 93.6899C24.8661 93.6711 24.7049 93.4761 24.7236 93.2811C24.7424 93.1874 24.7836 93.1049 24.8436 93.0449H24.8624L29.5874 88.3199L35.7036 94.4361L25.0799 93.6899ZM37.2036 87.4011C36.7386 87.6561 36.5024 88.1849 36.6186 88.6911L37.6349 93.0111C37.7961 93.6374 37.0311 94.0611 36.5811 93.5961H36.5624L30.4311 87.4611L49.2411 68.6699L58.3424 66.7011L62.6961 71.0774C56.4261 76.5824 47.8499 82.0724 37.2074 87.4011H37.2036ZM63.5961 70.2749L59.3961 66.0749L82.8899 45.4499C83.1036 45.2549 83.2986 45.0411 83.4749 44.8236C82.7549 51.5436 73.3386 61.0349 63.5961 70.2749ZM81.8961 37.9686H81.8774C73.6911 29.7449 85.2561 17.1074 94.1624 24.5286L86.1186 32.5986C85.8824 32.8274 85.8824 33.2249 86.1186 33.4536L92.3474 39.6899C88.8524 41.4261 84.6524 40.7249 81.8961 37.9686ZM94.7661 37.9686C94.3574 38.3774 93.9074 38.7486 93.4199 39.0599L87.3861 33.0261L95.0399 25.3499C98.3586 28.9649 98.2236 34.5111 94.7661 37.9686ZM94.2749 30.2549C94.0236 30.4311 93.9261 30.7386 94.0049 31.0349C94.3761 31.7736 94.2749 32.6549 93.7499 33.2811C93.4949 33.5961 93.5549 34.0274 93.8661 34.2749C93.9861 34.3536 94.1211 34.4136 94.2749 34.4136C94.4886 34.4136 94.6911 34.3349 94.8036 34.1774C95.6849 33.1236 95.8574 31.6386 95.2536 30.4086C95.0174 30.0974 94.5899 30.0186 94.2749 30.2549Z" fill="white" stroke="white"/>
</g>
<defs>
<clipPath id="clip0_7_147">
<rect width="120" height="120" fill="white"/>
</clipPath>
</defs>
</svg>
