<svg width="120" height="120" viewBox="0 0 120 120" fill="none" xmlns="http://www.w3.org/2000/svg">
<path d="M42.7188 16.7266C40.2747 16.7266 38.008 17.2737 36 18.4297C29.7245 22.0528 27.3359 30.8822 28.6016 41.875C18.4508 46.2753 12 52.7547 12 60C12 67.2453 18.4508 73.7247 28.6016 78.125C27.3365 89.1174 29.7245 97.9472 36 101.57C38.004 102.726 40.2708 103.273 42.7188 103.273C47.9293 103.273 53.9514 100.658 60 96.1719C66.0491 100.658 72.0786 103.273 77.2891 103.273C79.7331 103.273 81.9998 102.726 84.0078 101.57C90.2833 97.9472 92.6719 89.1177 91.4062 78.125C101.553 73.7247 108 67.2438 108 60C108 52.7547 101.549 46.2753 91.3984 41.875C92.6635 30.8826 90.2755 22.0528 84 18.4297C81.996 17.2697 79.7292 16.7266 77.2812 16.7266C72.0707 16.7266 66.0486 19.3416 60 23.8281C53.9511 19.3416 47.9275 16.7266 42.7188 16.7266ZM42.7188 23.7266C45.8453 23.7266 49.9798 25.389 54.4688 28.4688C51.8295 30.9595 49.2446 33.7917 46.7578 36.9453C42.7243 37.5237 38.9214 38.3668 35.3984 39.4219C35.3795 39.1776 35.3347 38.9212 35.3203 38.6797C34.8923 31.5597 36.456 26.2522 39.5 24.4922C40.4 23.9722 41.4508 23.7266 42.7188 23.7266ZM77.2812 23.7266C78.5452 23.7266 79.6 23.9722 80.5 24.4922C83.544 26.2482 85.1077 31.5597 84.6797 38.6797C84.6652 38.9212 84.6206 39.1776 84.6016 39.4219C81.0764 38.3661 77.2707 37.5237 73.2344 36.9453C70.7476 33.7922 68.1705 30.9592 65.5312 28.4688C70.0199 25.3895 74.1563 23.7266 77.2812 23.7266ZM60 32.9141C61.0843 33.901 62.1611 34.9441 63.25 36.0859C62.1709 36.0497 61.0975 36 60 36C58.9051 36 57.8344 36.0499 56.7578 36.0859C57.8458 34.9453 58.9167 33.9001 60 32.9141ZM60 43C63.3148 43 66.4565 43.1853 69.4375 43.5078C71.2554 45.9788 73.0471 48.5912 74.7266 51.5C76.3363 54.2881 77.7598 57.142 79.0156 60C77.7596 62.8598 76.3373 65.718 74.7266 68.5078C73.0523 71.4082 71.2651 74.0038 69.4531 76.4688C66.3668 76.8064 63.2009 77 60 77C56.6852 77 53.5435 76.8147 50.5625 76.4922C48.7446 74.0212 46.9529 71.4166 45.2734 68.5078C43.6627 65.718 42.2408 62.8598 40.9844 60C42.2399 57.142 43.6637 54.2881 45.2734 51.5C46.9483 48.5996 48.7344 45.9962 50.5469 43.5312C53.6332 43.1936 56.7991 43 60 43ZM78.9844 45.1641C80.5714 45.5472 82.097 45.9608 83.5312 46.4219C83.2063 47.8901 82.8089 49.3864 82.3594 50.8984C81.8447 49.9326 81.3455 48.9636 80.7891 48C80.2166 47.0088 79.581 46.1182 78.9844 45.1641ZM41.0078 45.1719C40.4132 46.1231 39.7816 47.012 39.2109 48C38.6547 48.9638 38.1552 49.9324 37.6406 50.8984C37.19 49.3833 36.7862 47.8852 36.4609 46.4141C37.9215 45.9526 39.4433 45.5439 41.0078 45.1719ZM29.875 48.9844C30.7178 52.5429 31.8869 56.2317 33.3906 59.9922C31.8901 63.7438 30.7259 67.4258 29.8828 70.9766C22.9169 67.6128 19 63.4255 19 60C19 56.484 22.8075 52.4771 29.1875 49.2891C29.4053 49.1801 29.6525 49.0908 29.875 48.9844ZM90.1172 49.0234C97.0831 52.3872 101 56.5745 101 60C101 63.516 97.1925 67.5229 90.8125 70.7109C90.5947 70.8199 90.3475 70.9092 90.125 71.0156C89.2817 67.4551 88.1222 63.7628 86.6172 60C88.1159 56.2517 89.2748 52.5712 90.1172 49.0234ZM60 52C55.58 52 52 55.58 52 60C52 64.42 55.58 68 60 68C64.42 68 68 64.42 68 60C68 55.58 64.42 52 60 52ZM37.6406 69.1016C38.1555 70.0678 38.6621 71.036 39.2188 72C39.7906 72.9905 40.4197 73.8824 41.0156 74.8359C39.4286 74.4528 37.903 74.0392 36.4688 73.5781C36.7939 72.109 37.1907 70.6145 37.6406 69.1016ZM82.3594 69.1094C82.8095 70.623 83.2141 72.1162 83.5391 73.5859C82.0785 74.0474 80.5567 74.4561 78.9922 74.8281C79.5868 73.8769 80.2184 72.988 80.7891 72C81.3442 71.0382 81.8458 70.0734 82.3594 69.1094ZM35.3984 80.5781C38.9236 81.6339 42.7293 82.4763 46.7656 83.0547C49.2532 86.2094 51.8283 89.0477 54.4688 91.5391C49.9802 94.6179 45.8451 96.2812 42.7188 96.2812C41.4548 96.2812 40.4 96.0278 39.5 95.5078C36.456 93.7518 34.8923 88.4481 35.3203 81.3281C35.335 81.0841 35.3792 80.825 35.3984 80.5781ZM84.6016 80.5781C84.6207 80.825 84.6651 81.0841 84.6797 81.3281C85.1077 88.4481 83.544 93.7478 80.5 95.5078C79.6 96.0278 78.5492 96.2813 77.2812 96.2812C74.1549 96.2812 70.0198 94.6184 65.5312 91.5391C68.1719 89.0474 70.7542 86.2098 73.2422 83.0547C77.2757 82.4763 81.0786 81.6332 84.6016 80.5781ZM56.75 83.9141C57.8291 83.9503 58.9025 84 60 84C61.0975 84 62.1709 83.9503 63.25 83.9141C62.1611 85.0559 61.0843 86.0991 60 87.0859C58.9157 86.099 57.8389 85.0559 56.75 83.9141Z" fill="white"/>
</svg>
