<svg width="50" height="50" viewBox="0 0 50 50" fill="none" xmlns="http://www.w3.org/2000/svg">
<path d="M41.9238 6.6406C41.3821 6.66451 40.8773 6.82231 40.4329 7.00193C40.0167 7.16937 38.4263 7.8515 35.9212 8.92576C33.414 10.001 30.0941 11.4263 26.5527 12.9492C19.4699 15.995 11.507 19.4236 7.42839 21.1784C7.27502 21.2443 6.73987 21.4153 6.17188 21.8587C5.60388 22.3021 5 23.221 5 24.2448C5 25.0703 5.39345 25.8905 5.88867 26.3802C6.3839 26.8699 6.90791 27.1118 7.35677 27.2949C8.98538 27.9594 14.0364 30.0264 14.9902 30.4166C15.3259 31.445 17.1542 37.0375 17.5781 38.4082C17.8576 39.3127 18.1237 39.8792 18.4701 40.3288C18.6432 40.5535 18.8446 40.7505 19.0885 40.9049C19.1861 40.9666 19.293 41.0142 19.401 41.0579L19.4076 41.0612C19.4325 41.0712 19.4539 41.0882 19.4792 41.097C19.5268 41.1136 19.5587 41.1157 19.6224 41.1295C19.8763 41.2115 20.1326 41.263 20.3613 41.263C21.3366 41.263 21.9336 40.7259 21.9336 40.7259L21.9694 40.6998L26.9857 36.3607L33.0697 42.1159C33.1553 42.237 33.9542 43.3333 35.7161 43.3333C36.7623 43.3333 37.5922 42.8084 38.125 42.2493C38.6578 41.6903 38.9897 41.103 39.1309 40.3646V40.3613C39.2628 39.6635 44.8698 10.8789 44.8698 10.8789L44.86 10.9179C45.0242 10.1688 45.0672 9.47105 44.8861 8.78253C44.705 8.09402 44.2277 7.4348 43.6361 7.08006C43.0444 6.7254 42.4656 6.6167 41.9238 6.6406ZM41.6113 10.1237C41.6033 10.1723 41.6173 10.1479 41.6048 10.2051L41.6016 10.2246L41.5983 10.2441C41.5983 10.2441 36.0608 38.6606 35.8561 39.7428C35.8711 39.6611 35.8026 39.8236 35.7324 39.9219C35.6332 39.8534 35.4297 39.7656 35.4297 39.7656L35.3971 39.7298L27.0866 31.8685L21.2109 36.9466L22.959 29.9479C22.959 29.9479 33.8859 18.6368 34.5443 17.9785C35.0743 17.4518 35.1855 17.2682 35.1855 17.0866C35.1855 16.8432 35.0587 16.6666 34.7754 16.6666C34.5204 16.6666 34.1775 16.9146 33.9941 17.0312C31.6056 18.5538 21.1197 24.6652 16.4193 27.3991C15.6723 27.0934 10.4828 24.9691 8.72396 24.2513C8.73727 24.2454 8.73289 24.2475 8.74674 24.2415C12.8264 22.4863 20.786 19.0578 27.8678 16.0123C31.4087 14.4896 34.7311 13.0632 37.2363 11.9889C39.703 10.9311 41.4169 10.2031 41.6113 10.1237Z" fill="white"/>
</svg>
