<svg width="27" height="25" viewBox="0 0 27 25" fill="none" xmlns="http://www.w3.org/2000/svg">
<path d="M24.9212 0.00214797C24.5556 0.0184316 24.2149 0.125939 23.915 0.248312C23.634 0.362385 22.5606 0.8271 20.8698 1.55897C19.1776 2.29148 16.9369 3.26251 14.5467 4.30004C9.76628 6.3751 4.39182 8.71089 1.639 9.90637C1.53549 9.95131 1.1743 10.0678 0.790941 10.3699C0.407582 10.672 0 11.2979 0 11.9954C0 12.5579 0.265551 13.1166 0.599797 13.4502C0.934042 13.7839 1.28772 13.9486 1.59067 14.0734C2.68988 14.5261 6.099 15.9343 6.74277 16.2002C6.96933 16.9007 8.20327 20.7108 8.48943 21.6446C8.67807 22.2608 8.85763 22.6468 9.09142 22.9531C9.20832 23.1062 9.3442 23.2404 9.50886 23.3456C9.57468 23.3876 9.64685 23.42 9.71978 23.4498L9.72418 23.452C9.74098 23.4589 9.75547 23.4704 9.77251 23.4764C9.80466 23.4878 9.82617 23.4892 9.86918 23.4986C10.0405 23.5545 10.2135 23.5895 10.3679 23.5895C11.0262 23.5895 11.4291 23.2236 11.4291 23.2236L11.4533 23.2059L14.8389 20.2497L18.9452 24.1706C19.003 24.2531 19.5423 25 20.7314 25C21.4375 25 21.9976 24.6424 22.3573 24.2615C22.7169 23.8807 22.9409 23.4805 23.0361 22.9775V22.9752C23.1252 22.4999 26.9096 2.88959 26.9096 2.88959L26.903 2.9162C27.0137 2.40579 27.0428 1.93046 26.9205 1.46139C26.7983 0.992322 26.4762 0.543212 26.0769 0.301537C25.6776 0.0599151 25.2869 -0.0141358 24.9212 0.00214797ZM24.7103 2.37508C24.7049 2.40822 24.7143 2.39156 24.7059 2.43052L24.7037 2.44383L24.7015 2.45714C24.7015 2.45714 20.9641 21.8166 20.8259 22.5539C20.836 22.4982 20.7898 22.6089 20.7424 22.6759C20.6754 22.6293 20.5381 22.5694 20.5381 22.5694L20.5161 22.545L14.907 17.1893L10.9413 20.6489L12.1212 15.8808C12.1212 15.8808 19.4962 8.17488 19.9405 7.72638C20.2982 7.36757 20.3733 7.24249 20.3733 7.11873C20.3733 6.95295 20.2877 6.83265 20.0965 6.83265C19.9244 6.83265 19.6929 7.00155 19.5692 7.08103C17.9571 8.11832 10.8798 12.2819 7.70728 14.1444C7.20312 13.9361 3.70052 12.4889 2.51343 11.9999C2.52242 11.9959 2.51946 11.9973 2.52881 11.9932C5.28235 10.7974 10.6546 8.46165 15.4343 6.38689C17.8242 5.34951 20.0666 4.37774 21.7575 3.64582C23.4223 2.92517 24.5791 2.42921 24.7103 2.37508Z" fill="#1E1E1E"/>
</svg>
