<svg width="50" height="50" viewBox="0 0 50 50" fill="none" xmlns="http://www.w3.org/2000/svg">
<path d="M25 5C13.955 5 5 13.955 5 25C5 36.045 13.955 45 25 45C36.045 45 45 36.045 45 25C45 13.955 36.045 5 25 5ZM35.6017 31.6117L32.4883 31.655C32.4883 31.655 31.8167 31.7867 30.9383 31.18C29.7733 30.38 28.675 28.2983 27.8183 28.5683C26.95 28.845 26.9767 30.7183 26.9767 30.7183C26.9767 30.7183 26.9833 31.0483 26.785 31.2633C26.57 31.495 26.1483 31.4717 26.1483 31.4717H24.7533C24.7533 31.4717 21.6767 31.7267 18.965 28.9C16.0117 25.8183 13.4017 19.7367 13.4017 19.7367C13.4017 19.7367 13.2483 19.3533 13.4117 19.1567C13.5967 18.94 14.095 18.9333 14.095 18.9333L17.4283 18.9167C17.4283 18.9167 17.7417 18.9717 17.9683 19.1383C18.1533 19.275 18.2583 19.5317 18.2583 19.5317C18.2583 19.5317 18.7967 20.8967 19.5117 22.1333C20.905 24.5433 21.5517 25.0717 22.025 24.8133C22.715 24.4367 22.5083 21.4067 22.5083 21.4067C22.5083 21.4067 22.5217 20.3067 22.1617 19.8167C21.8817 19.435 21.355 19.3217 21.125 19.2933C20.9367 19.2683 21.2433 18.8317 21.6433 18.635C22.2433 18.3417 23.3033 18.325 24.555 18.3367C25.53 18.3467 25.8117 18.4067 26.1917 18.5C27.3417 18.7783 26.9517 19.8517 26.9517 22.4267C26.9517 23.2517 26.8033 24.4117 27.3967 24.7933C27.6533 24.9583 28.2783 24.8183 29.8367 22.1617C30.5783 20.9017 31.1333 19.4217 31.1333 19.4217C31.1333 19.4217 31.255 19.1583 31.4433 19.045C31.6367 18.9283 31.8967 18.965 31.8967 18.965L35.405 18.9433C35.405 18.9433 36.4583 18.8167 36.63 19.295C36.81 19.795 36.2367 20.9633 34.8033 22.875C32.45 26.015 32.1883 25.7233 34.1433 27.54C36.01 29.275 36.395 30.1183 36.46 30.225C37.2317 31.51 35.6017 31.6117 35.6017 31.6117Z" fill="white"/>
</svg>
